<svg width="36" height="32" viewBox="0 0 36 32" fill="none" xmlns="http://www.w3.org/2000/svg">
<path d="M33.6221 0H22.6384C22.1599 0.000135174 21.7009 0.190052 21.3622 0.528104C21.0235 0.866155 20.8326 1.32474 20.8315 1.8033V12.789C20.8318 13.268 21.0222 13.7273 21.3609 14.066C21.6996 14.4047 22.1589 14.5951 22.6379 14.5954H27.8932C27.8245 17.4714 27.1573 19.7741 25.8916 21.5036C24.7077 23.0125 23.1461 24.1817 21.3648 24.8927C21.1445 24.9905 20.9461 25.1314 20.7813 25.3071C20.6164 25.4829 20.4884 25.6899 20.4049 25.9159C20.3213 26.1419 20.284 26.3824 20.295 26.6231C20.3059 26.8638 20.3651 27.0999 20.4688 27.3174L21.7697 30.0636C21.9708 30.4869 22.3286 30.8156 22.7675 30.98C23.2063 31.1445 23.6919 31.132 24.1218 30.9451C26.3624 30.0116 28.4153 28.6797 30.1808 27.0139C32.101 25.2158 33.5235 22.9515 34.3099 20.4412C35.0542 17.9986 35.4264 14.6649 35.4264 10.4401V1.8033C35.4253 1.32519 35.2348 0.866992 34.8966 0.529014C34.5585 0.191036 34.1002 0.000816505 33.6221 0Z" fill="white"/>
<path d="M4.03113 30.9374C6.25683 29.9963 8.29787 28.6677 10.0593 27.0134C11.9881 25.228 13.4199 22.9722 14.2146 20.4669C14.9589 18.0426 15.3311 14.7005 15.3311 10.4406V1.8033C15.33 1.3251 15.1395 0.866824 14.8012 0.528831C14.4629 0.190839 14.0045 0.00068034 13.5263 0H2.54263C2.06408 0.000135174 1.60511 0.190052 1.26638 0.528104C0.927655 0.866155 0.73682 1.32474 0.735729 1.8033V12.789C0.736001 13.268 0.926405 13.7273 1.26511 14.066C1.60381 14.4047 2.06312 14.5951 2.54212 14.5954H7.79745C7.72875 17.4714 7.06153 19.7741 5.79578 21.5036C4.61169 23.0125 3.04985 24.1817 1.26847 24.8927C1.04823 24.9905 0.849811 25.1314 0.684942 25.3071C0.520072 25.4829 0.392095 25.6899 0.308572 25.9159C0.225048 26.1419 0.187671 26.3824 0.19865 26.6231C0.209629 26.8638 0.26874 27.0999 0.372493 27.3174L1.66984 30.0564C1.87204 30.481 2.23149 30.8104 2.67216 30.9748C3.11283 31.1392 3.60017 31.1258 4.03113 30.9374Z" fill="white"/>
</svg>
